<?xml version="1.0" encoding="UTF-8"?>
<svg id="_Слой_1" data-name="Слой 1" xmlns="http://www.w3.org/2000/svg" xmlns:xlink="http://www.w3.org/1999/xlink" viewBox="0 0 999.82 999.82">
  <defs>
    <style>
      .cls-1 {
        fill: url(#_Безымянный_градиент_294);
      }

      .cls-1, .cls-2, .cls-3, .cls-4, .cls-5, .cls-6, .cls-7, .cls-8, .cls-9, .cls-10, .cls-11, .cls-12 {
        stroke-width: 0px;
      }

      .cls-2 {
        fill: url(#_Безымянный_градиент_80-3);
      }

      .cls-3 {
        fill: url(#_Безымянный_градиент_80-4);
      }

      .cls-4 {
        fill: url(#_Безымянный_градиент_168);
      }

      .cls-5 {
        fill: url(#_Безымянный_градиент_399);
      }

      .cls-6 {
        fill: url(#_Безымянный_градиент_80);
      }

      .cls-7 {
        fill: url(#_Безымянный_градиент_296);
      }

      .cls-8 {
        opacity: .64;
      }

      .cls-9 {
        fill: url(#_Безымянный_градиент_80-2);
      }

      .cls-10 {
        fill: #ffbb94;
      }

      .cls-11 {
        fill: url(#_Безымянный_градиент_390);
      }

      .cls-12 {
        fill: url(#_Безымянный_градиент_240);
      }
    </style>
    <linearGradient id="_Безымянный_градиент_80" data-name="Безымянный градиент 80" x1="0" y1="499.91" x2="999.82" y2="499.91" gradientUnits="userSpaceOnUse">
      <stop offset=".26" stop-color="#861c1c"/>
      <stop offset=".74" stop-color="#861c1c" stop-opacity=".57"/>
      <stop offset="1" stop-color="#861c1c" stop-opacity=".38"/>
    </linearGradient>
    <linearGradient id="_Безымянный_градиент_390" data-name="Безымянный градиент 390" x1="134.8" y1="529.96" x2="797.02" y2="529.96" gradientUnits="userSpaceOnUse">
      <stop offset=".26" stop-color="#611c1c"/>
      <stop offset="1" stop-color="#901c1c" stop-opacity=".7"/>
    </linearGradient>
    <linearGradient id="_Безымянный_градиент_80-2" data-name="Безымянный градиент 80" x1="134.8" y1="529.96" x2="797.02" y2="529.96" xlink:href="#_Безымянный_градиент_80"/>
    <linearGradient id="_Безымянный_градиент_168" data-name="Безымянный градиент 168" x1="313.85" y1="623.78" x2="656.64" y2="623.78" gradientUnits="userSpaceOnUse">
      <stop offset="0" stop-color="#861c1c"/>
      <stop offset=".06" stop-color="#8d2222"/>
      <stop offset=".45" stop-color="#bd4747"/>
      <stop offset=".75" stop-color="#db5e5e"/>
      <stop offset=".92" stop-color="#e76767"/>
    </linearGradient>
    <linearGradient id="_Безымянный_градиент_80-3" data-name="Безымянный градиент 80" x1="313.85" y1="623.78" x2="656.64" y2="623.78" xlink:href="#_Безымянный_градиент_80"/>
    <linearGradient id="_Безымянный_градиент_399" data-name="Безымянный градиент 399" x1="426.87" y1="604.39" x2="537.68" y2="604.39" gradientUnits="userSpaceOnUse">
      <stop offset=".26" stop-color="#7d1c1c"/>
      <stop offset="1" stop-color="#901c1c" stop-opacity=".7"/>
      <stop offset="1" stop-color="#8b1c1c" stop-opacity=".54"/>
      <stop offset="1" stop-color="#861c1c" stop-opacity=".38"/>
    </linearGradient>
    <linearGradient id="_Безымянный_градиент_80-4" data-name="Безымянный градиент 80" x1="426.87" y1="604.39" x2="537.68" y2="604.39" xlink:href="#_Безымянный_градиент_80"/>
    <radialGradient id="_Безымянный_градиент_240" data-name="Безымянный градиент 240" cx="329.26" cy="459.92" fx="329.26" fy="459.92" r="34.9" gradientUnits="userSpaceOnUse">
      <stop offset="0" stop-color="#721d25"/>
      <stop offset=".19" stop-color="#8f161d" stop-opacity=".79"/>
      <stop offset=".74" stop-color="#df0608" stop-opacity=".22"/>
      <stop offset="1" stop-color="red" stop-opacity="0"/>
    </radialGradient>
    <radialGradient id="_Безымянный_градиент_294" data-name="Безымянный градиент 294" cx="329.3" cy="459.98" fx="329.3" fy="459.98" r="39.83" gradientUnits="userSpaceOnUse">
      <stop offset="0" stop-color="red"/>
      <stop offset=".17" stop-color="red" stop-opacity=".74"/>
      <stop offset=".33" stop-color="red" stop-opacity=".52"/>
      <stop offset=".49" stop-color="red" stop-opacity=".33"/>
      <stop offset=".64" stop-color="red" stop-opacity=".19"/>
      <stop offset=".78" stop-color="red" stop-opacity=".08"/>
      <stop offset=".9" stop-color="red" stop-opacity=".02"/>
      <stop offset="1" stop-color="red" stop-opacity="0"/>
    </radialGradient>
    <radialGradient id="_Безымянный_градиент_296" data-name="Безымянный градиент 296" cx="329.19" cy="460.04" fx="329.19" fy="460.04" r="19.11" gradientUnits="userSpaceOnUse">
      <stop offset="0" stop-color="red"/>
      <stop offset=".09" stop-color="red" stop-opacity=".97"/>
      <stop offset=".22" stop-color="red" stop-opacity=".89"/>
      <stop offset=".37" stop-color="red" stop-opacity=".76"/>
      <stop offset=".55" stop-color="red" stop-opacity=".57"/>
      <stop offset=".75" stop-color="red" stop-opacity=".34"/>
      <stop offset=".96" stop-color="red" stop-opacity=".06"/>
      <stop offset="1" stop-color="red" stop-opacity="0"/>
    </radialGradient>
  </defs>
  <g id="svg_5" data-name="svg 5" marker-end="" marker-mid="" marker-start="">
    <circle class="cls-10" cx="499.91" cy="499.91" r="499.91"/>
    <path class="cls-6" d="M499.91,30c63.48,0,125.03,12.42,182.95,36.9,55.96,23.66,106.21,57.54,149.37,100.69,43.16,43.16,77.03,93.41,100.69,149.37,24.49,57.92,36.9,119.47,36.9,182.95s-12.42,125.03-36.9,182.95c-23.66,55.96-57.54,106.21-100.69,149.37s-93.41,77.03-149.37,100.69c-57.92,24.49-119.47,36.9-182.95,36.9s-125.03-12.42-182.95-36.9c-55.96-23.66-106.21-57.54-149.37-100.69-43.16-43.16-77.03-93.41-100.69-149.37-24.49-57.92-36.9-119.47-36.9-182.95s12.42-125.03,36.9-182.95c23.66-55.96,57.54-106.21,100.69-149.37,43.16-43.16,93.41-77.03,149.37-100.69,57.92-24.49,119.47-36.9,182.95-36.9M499.91,0C223.72,0,0,223.72,0,499.91s223.72,499.91,499.91,499.91,499.91-223.72,499.91-499.91S776.1,0,499.91,0h0Z"/>
  </g>
  <g id="dolph">
    <g id="svg_1" data-name="svg 1">
      <path class="cls-11" d="M717.54,329.02c6.72-44.4,27.58-85.46,59.49-117.06,14.08-14.08,5-39.99-20-39.99,0,0-121.2.14-197.82,66.53-20.43-4.34-41.25-6.53-62.13-6.54-159.97,0-239.96,79.99-279.95,239.96-8.88,35.55-17.3,27.97-59.99,59.99-23.9,17.92-42.33,59.99,20,59.99s99.98,19.08,179.97,20c72.57.84,190.05-64.57,221.7-25.84,44.21,54.11,27.91,108.74,11.94,133.3-58.07,67.91-118.76,10.82-173.67-7.48-59.99-20-20,20,0,39.99,20,20,26.24,79.99,0,119.98-26.24,39.99,59.99,0,99.98-59.99.22-.34.44-.56.64-.9,156.01-9.1,279.33-120.36,279.33-279.05,0-78.35-30.29-149.45-79.49-202.88Z"/>
      <path class="cls-9" d="M757.04,179.97c8.27,0,14.8,3.84,17.46,10.27,2.34,5.64,1.14,11.8-3.1,16.04-32.9,32.59-54.84,75.76-61.77,121.55l-.57,3.79,2.6,2.82c49.89,54.19,77.37,124.32,77.37,197.46,0,37.58-7.09,73.29-21.07,106.14-13.39,31.46-32.79,59.63-57.66,83.74-49.5,47.98-118.06,76.81-193.07,81.18l-4.26.25-2.02,3.44c-.14.18-.34.45-.56.79-16.71,25.04-39.63,43.43-51.81,52.16-16.78,12.03-29.71,17.88-36.67,19.69.48-.87,1.08-1.89,1.86-3.07,27.52-41.95,22.43-106.56-1.03-130.02-5.93-5.93-13.32-13.32-19.42-20.41-4.63-5.39-7.1-8.98-8.42-11.26,3.52.34,9.53,1.55,19.66,4.93,11.9,3.96,24.08,9.83,36.98,16.03,24.78,11.92,50.41,24.25,77.02,24.25s48.03-11.51,68.28-35.19l.34-.4.29-.44c21.3-32.74,30.82-89.76-12.45-142.72-8.36-10.23-21.39-15.21-39.83-15.21-24.81,0-56.29,8.95-89.61,18.42-34.06,9.68-69.28,19.7-97.06,19.7-.43,0-.87,0-1.3,0-41.54-.48-71.62-5.84-100.7-11.03-25.87-4.61-50.31-8.97-79.36-8.97-18.95,0-31.26-4.31-33.76-11.81-2.87-8.61,5.63-24.08,18.56-33.78,12.49-9.36,21.9-15.22,29.46-19.92,18.18-11.31,26.48-16.47,33.49-44.53,10.13-40.53,22.38-74.29,37.45-103.23,15.49-29.74,33.51-53.53,55.08-72.7,43.88-39.01,102.65-57.97,179.65-57.97,20.28.01,40.63,2.15,60.47,6.36l3.89.83,3.01-2.61c16.8-14.55,37.29-27,60.91-37,19.06-8.07,40.18-14.56,62.77-19.3,38.59-8.1,68.47-8.27,68.91-8.27M757.03,171.97s-121.2.14-197.82,66.53c-20.43-4.34-41.25-6.53-62.13-6.54-159.97,0-239.96,79.99-279.95,239.96-8.88,35.55-17.3,27.97-59.99,59.99-23.9,17.92-42.33,59.99,20,59.99s99.98,19.08,179.97,20c.46,0,.93,0,1.4,0,55.93,0,137.65-38.12,186.67-38.12,14.66,0,26.39,3.41,33.64,12.27,44.21,54.11,27.91,108.74,11.94,133.3-20.53,24.01-41.38,32.39-62.2,32.39-38.06,0-75.97-28.04-111.47-39.87-11.46-3.82-19.27-5.45-24.27-5.45-21.18,0,8.09,29.27,24.27,45.44,20,20,26.24,79.99,0,119.98-7.33,11.17-5.88,16.1.87,16.1,17.44,0,70.28-32.85,99.11-76.09.22-.34.44-.56.64-.9,156.01-9.1,279.33-120.36,279.33-279.05,0-78.35-30.29-149.45-79.49-202.88,6.72-44.4,27.58-85.46,59.49-117.06,14.08-14.08,5-39.99-20-39.99h0Z"/>
    </g>
    <g id="svg_3" data-name="svg 3">
      <path class="cls-4" d="M313.85,609.81s79.99-17.52,143.31-53.75c92.48-52.91,145.17-51.87,177.67-16.46,32.49,35.41,39.79,131.86-57.69,193.5,52.07-54.99,22.92-166.95-40.27-151.73-163.03,39.27-178.03,30.93-223.02,28.43Z"/>
      <path class="cls-2" d="M552.09,516.86c-.95.18-1.91.37-2.87.57h-.07c-3.47.74-7.03,1.6-10.69,2.6l-.1.03c-.92.25-1.85.51-2.78.78l1.58,5.77,2.89-.79c3.51-.96,6.99-1.8,10.34-2.5l2.94-.61-1.22-5.85h0ZM526.04,523.84c-.92.31-1.84.63-2.76.95l-.07.03c-.94.33-1.9.67-2.85,1.02h0s-.05.02-.08.03h0c-.05.02-.1.04-.15.06,0,0,0,0-.01,0-.02,0-.05.02-.07.03,0,0,0,0,0,0-.03,0-.05.02-.08.03,0,0,0,0,0,0-.02,0-.04.02-.06.02,0,0-.01,0-.02,0-.02,0-.04.02-.06.02,0,0,0,0,0,0-.02,0-.05.02-.07.03,0,0-.01,0-.02,0-.02,0-.03.01-.05.02,0,0-.02,0-.03,0-.02,0-.04.01-.05.02,0,0-.01,0-.02,0-.02,0-.04.02-.06.02,0,0-.02,0-.03.01-.01,0-.02,0-.04.01-.01,0-.02,0-.04.01-.01,0-.02,0-.04.01-.02,0-.04.02-.06.02,0,0-.02,0-.03,0-.01,0-.03.01-.04.02,0,0-.02,0-.03.01-.01,0-.03.01-.04.02,0,0,0,0-.01,0-.03.01-.06.02-.09.03,0,0-.02,0-.02,0-.01,0-.03.01-.04.02,0,0-.01,0-.02,0-.05.02-.1.04-.16.06,0,0,0,0-.01,0-.02,0-.04.01-.05.02,0,0,0,0,0,0-.06.02-.11.04-.17.06h0c-2.76,1.03-5.57,2.12-8.43,3.29l2.2,5.57,2.79-1.1c3.41-1.35,6.8-2.62,10.08-3.77l2.83-.99-1.98-5.65h0ZM500.91,533.69c-.93.41-1.85.82-2.79,1.25,0,0,0,0,0,0-.02,0-.04.02-.05.02,0,0-.01,0-.02,0-.02,0-.03.01-.05.02-.01,0-.02,0-.03.01-.01,0-.02.01-.03.02-.02,0-.04.02-.05.02,0,0-.01,0-.02,0-.02.01-.05.02-.07.03,0,0,0,0,0,0-.02.01-.04.02-.07.03,0,0,0,0-.01,0-.02.01-.05.02-.07.03h0c-1.68.76-3.38,1.55-5.1,2.36,0,0,0,0-.01,0-.02,0-.04.02-.06.03,0,0-.02,0-.02.01l-.05.02s-.02,0-.03.01c-.01,0-.03.01-.04.02-.01,0-.02.01-.03.02-.02,0-.03.02-.05.02-.01,0-.03.01-.04.02-.02,0-.03.02-.05.02-.02,0-.04.02-.05.03,0,0,0,0-.01,0-.02.01-.04.02-.06.03,0,0,0,0,0,0-.02.01-.04.02-.06.03,0,0,0,0,0,0-2.12,1-4.27,2.04-6.44,3.11l2.62,5.39,2.7-1.31c3.31-1.61,6.61-3.15,9.81-4.6l2.73-1.24-2.47-5.46h0ZM476.6,545.43c-.89.46-1.78.93-2.68,1.41-.01,0-.03.02-.04.02,0,0-.02.01-.03.02-.01,0-.03.02-.04.02-.01,0-.02.01-.04.02-.01,0-.02.01-.03.02-.01,0-.03.02-.05.02,0,0-.01,0-.02.01-.02,0-.04.02-.06.03,0,0,0,0,0,0-.02.01-.04.02-.06.03,0,0,0,0-.01,0-1.82.96-3.65,1.94-5.49,2.95,0,0,0,0,0,0-.02.01-.05.02-.07.04,0,0,0,0,0,0-.02.01-.04.02-.06.03,0,0-.01,0-.02,0-.02,0-.03.02-.05.03,0,0-.02,0-.03.02-.01,0-.03.02-.04.02-.01,0-.03.01-.04.02,0,0-.02.01-.03.02-.02,0-.03.02-.05.03,0,0-.01,0-.02,0-1.11.61-2.23,1.22-3.36,1.85l-.14.08c-.82.46-1.65.92-2.48,1.38l2.91,5.24,2.62-1.45c3.22-1.79,6.44-3.53,9.57-5.18l2.65-1.4-2.8-5.3h0ZM452.94,558.45l-2.64,1.43c-3.22,1.75-6.47,3.44-9.75,5.1l-2.68,1.35,2.7,5.36,2.68-1.35c3.37-1.7,6.7-3.44,9.9-5.18l2.64-1.43-2.86-5.28h0ZM428.86,570.66l-2.59,1.18c-3.44,1.58-6.88,3.1-10.32,4.58l-2.63,1.13,2.37,5.51,2.76-1.19c3.44-1.48,6.87-3,10.18-4.52l2.73-1.25-2.5-5.45h0ZM404.08,581.37l-2.71,1.07c-2.27.9-4.52,1.77-6.76,2.62,0,0,0,0-.01,0-.02,0-.04.02-.06.02,0,0-.02,0-.03.01-.01,0-.02,0-.03.01-.02,0-.05.02-.07.03h0c-1.13.43-2.26.86-3.38,1.28l-2.81,1.05,2.1,5.62,2.81-1.05c3.49-1.3,6.98-2.64,10.38-3.99l2.79-1.1-2.21-5.58h0ZM378.8,590.84l-2.68.92c-3.42,1.18-6.77,2.3-10.03,3.36,0,0-.01,0-.02,0-.02,0-.04.01-.06.02,0,0-.02,0-.02,0-.01,0-.03,0-.04.01-.14.05-.28.09-.42.14l-2.85.93,1.86,5.71,2.85-.93c3.52-1.15,7.06-2.33,10.52-3.52l2.84-.98-1.95-5.67h0ZM353.13,599.22l-2.75.82c-.64.19-1.28.38-1.9.57,0,0,0,0,0,0,0,0-.02,0-.03,0,0,0-.01,0-.02,0h0c-2.54.75-4.98,1.46-7.3,2.12-.53.15-1.05.3-1.56.44l-2.75.78.42,1.5c-1.53-.11-3.08-.22-4.67-.35-1.82.49-3.52.94-5.11,1.35l-.08.99-.23-.9-2.83.72c-6.64,1.69-10.47,2.53-10.47,2.53h0c6.73.37,12.79.88,18.78,1.34.02,0,.04,0,.06,0,0,0,0,0,0,0,.03,0,.05,0,.08,0,0,0,0,0,.01,0,2.76.21,5.51.41,8.3.58h.09c.96.06,1.93.12,2.9.17l.24-3.83c2.55-.73,5.12-1.48,7.66-2.25l2.87-.86-1.72-5.75h0ZM370.83,605.97l-3,.12c-3.39.14-6.63.2-9.92.2h-.82s-3,0-3,0l-.02,5.98c.98.02,1.97.03,2.98.03h.02c.28,0,.56,0,.84,0h.11s.05,0,.07,0h0c3.15,0,6.45-.07,9.97-.21h.17c.93-.04,1.87-.09,2.83-.14l-.24-5.98h0ZM397.23,603.51l-2.98.36c-3.71.45-7.33.84-10.77,1.16l-2.99.28.55,5.96c.92-.08,1.85-.16,2.8-.25l.19-.02c3.44-.32,7.08-.71,10.94-1.17h.09c.95-.13,1.91-.24,2.89-.37l-.72-5.95h0ZM423.65,599.51l-2.96.49c-3.7.62-7.32,1.2-10.77,1.72l-2.97.45.9,5.93c.95-.14,1.91-.28,2.88-.43h.08c3.46-.54,7.07-1.11,10.86-1.74l.22-.04c.9-.15,1.82-.31,2.74-.46l-.99-5.91h0ZM450.03,594.61l-2.94.58c-3.67.72-7.29,1.41-10.75,2.05l-2.95.55,1.09,5.89c.88-.16,1.77-.33,2.67-.49l.28-.05c3.39-.63,6.89-1.3,10.53-2.01,0,0,.02,0,.03,0,.02,0,.04,0,.07-.01,0,0,.02,0,.03,0,0,0,.02,0,.03,0,1.02-.2,2.04-.4,3.08-.61l-1.15-5.88h0ZM476.36,589.14l-2.93.63c-3.64.78-7.25,1.54-10.72,2.27l-2.94.61,1.22,5.87c.89-.18,1.79-.37,2.69-.56l.25-.05c3.39-.71,6.89-1.44,10.48-2.21.01,0,.02,0,.03,0,0,0,.01,0,.02,0,.03,0,.06-.01.09-.02,0,0,0,0,.01,0,1.01-.22,2.02-.44,3.05-.66l-1.26-5.86h0ZM502.64,583.27l-2.92.67c-3.66.83-7.23,1.64-10.71,2.42l-2.93.65,1.31,5.85c.86-.19,1.72-.38,2.59-.58l.34-.08c1.36-.3,2.73-.61,4.12-.92,0,0,.01,0,.02,0,.01,0,.02,0,.03,0,3.09-.7,6.26-1.42,9.49-2.16l-1.33-5.85h0ZM528.87,577.13l-2.92.69c-3.64.87-7.2,1.71-10.68,2.52l-2.92.68,1.37,5.84c2.51-.58,5.06-1.18,7.65-1.79,1.54-.36,3.09-.73,4.66-1.1,1.4-.33,2.8-.67,4.23-1.01l-1.39-5.84h0ZM548.34,573.97c-1.99,0-4.03.12-6.05.35l-2.98.35.69,5.96,2.94-.34c.34-.04.68-.08,1.01-.11,0,0,0,0,0,0,0,0,.02,0,.03,0,0,0,.01,0,.02,0h.02s.01,0,.02,0c0,0,.01,0,.02,0,0,0,.02,0,.02,0,0,0,.01,0,.02,0,0,0,.02,0,.03,0,0,0,.01,0,.02,0,0,0,.02,0,.03,0,0,0,0,0,.01,0,.01,0,.02,0,.03,0,0,0,0,0,.01,0,.01,0,.02,0,.03,0,0,0,0,0,.01,0,.01,0,.02,0,.03,0,0,0,0,0,0,0,.01,0,.02,0,.04,0,0,0,0,0,0,0,.01,0,.03,0,.04,0,0,0,0,0,0,0,.01,0,.03,0,.04,0,0,0,0,0,0,0,.01,0,.03,0,.04,0,0,0,0,0,0,0,.78-.07,1.56-.11,2.33-.14h0s.03,0,.04,0c0,0,0,0,0,0,.01,0,.03,0,.04,0,0,0,0,0,0,0,.01,0,.02,0,.04,0,0,0,0,0,0,0,.01,0,.02,0,.04,0,0,0,0,0,0,0,.01,0,.02,0,.04,0,0,0,0,0,0,0,.01,0,.02,0,.04,0,0,0,0,0,0,0,.01,0,.02,0,.04,0,0,0,0,0,0,0,.01,0,.02,0,.04,0,0,0,0,0,0,0,.01,0,.02,0,.04,0,0,0,0,0,0,0h.04s0,0,0,0c.01,0,.03,0,.04,0,0,0,0,0,0,0,.09,0,.17,0,.26,0,0,0,0,0,0,0,.01,0,.02,0,.04,0,0,0,0,0,0,0,.01,0,.02,0,.03,0,0,0,0,0,.01,0,0,0,.02,0,.03,0,0,0,0,0,.01,0,0,0,.02,0,.03,0,0,0,0,0,.01,0,0,0,.02,0,.03,0,0,0,.01,0,.02,0,0,0,.02,0,.03,0,0,0,.01,0,.02,0,0,0,.02,0,.03,0,0,0,.01,0,.02,0,0,0,.02,0,.03,0,0,0,.01,0,.02,0,0,0,.02,0,.02,0,0,0,.01,0,.02,0,0,0,.02,0,.02,0,0,0,.01,0,.02,0,0,0,.02,0,.02,0,0,0,.01,0,.02,0,0,0,.02,0,.02,0,0,0,.01,0,.02,0,0,0,.02,0,.03,0,0,0,.01,0,.02,0,0,0,.02,0,.03,0,0,0,.01,0,.02,0,0,0,.02,0,.03,0,0,0,.01,0,.02,0,0,0,.02,0,.03,0h.02s.02,0,.03,0h.01s.03,0,.04,0h0s.03,0,.04,0h.01s.02,0,.03,0h.02s.02,0,.03,0c0,0,.01,0,.02,0,.01,0,.02,0,.03,0,0,0,.01,0,.02,0,0,0,.02,0,.02,0,0,0,.01,0,.02,0,0,0,.02,0,.02,0,0,0,.01,0,.02,0,.01,0,.02,0,.03,0,0,0,.01,0,.02,0,0,0,.02,0,.03,0,0,0,.01,0,.02,0,.01,0,.03,0,.04,0,0,0,0,0,0,0,.01,0,.02,0,.04,0,0,0,.01,0,.02,0,0,0,.02,0,.03,0,0,0,.01,0,.02,0,.01,0,.01,0,.02,0,0,0,.01,0,.02,0,0,0,.02,0,.02,0,0,0,.01,0,.02,0,0,0,.02,0,.02,0,0,0,.01,0,.02,0,.01,0,.02,0,.03,0,0,0,.01,0,.02,0,.01,0,.01,0,.02,0,0,0,.01,0,.02,0,0,0,.02,0,.03,0,0,0,.01,0,.02,0,.01,0,.03,0,.04,0h0s.03,0,.04,0c0,0,0,0,.01,0,0,0,.02,0,.03,0,0,0,.01,0,.02,0,.01,0,.02,0,.03,0,0,0,.01,0,.02,0,.01,0,.02,0,.03,0,0,0,.01,0,.02,0,0,0,.02,0,.02,0,0,0,.01,0,.02,0,0,0,.02,0,.02,0,0,0,.01,0,.02,0,.01,0,.02,0,.03,0,0,0,.01,0,.02,0,.01,0,.02,0,.03,0,0,0,.01,0,.02,0,.03,0,.06,0,.08,0,0,0,0,0,.01,0,.01,0,.02,0,.03,0,0,0,0,0,.01,0,.01,0,.02,0,.03,0,0,0,.01,0,.02,0,0,0,.02,0,.03,0,0,0,.01,0,.02,0,0,0,.02,0,.02,0,0,0,.01,0,.02,0,.01,0,.01,0,.02,0,0,0,.01,0,.02,0,0,0,.02,0,.03,0,0,0,.01,0,.02,0,0,0,.02,0,.03,0,0,0,0,0,.01,0,.01,0,.03,0,.04,0,0,0,0,0,0,0,.01,0,.03,0,.04,0,0,0,0,0,0,0,0,0,.02,0,.03,0,0,0,.01,0,.01,0,0,0,.02,0,.03,0,0,0,.01,0,.02,0,0,0,.01,0,.02,0,0,0,.01,0,.02,0,0,0,.02,0,.02,0,0,0,.01,0,.02,0,0,0,.02,0,.02,0,0,0,.01,0,.02,0,0,0,.02,0,.03,0,0,0,.01,0,.02,0,0,0,.02,0,.03,0,0,0,0,0,.01,0,.03,0,.06,0,.08,0,0,0,0,0,.01,0,0,0,.02,0,.03,0,0,0,.01,0,.02,0,0,0,.02,0,.02,0,0,0,.01,0,.02,0,0,0,.01,0,.02,0,0,0,.01,0,.02,0,0,0,.02,0,.03,0,0,0,.01,0,.02,0,0,0,.02,0,.03,0,0,0,.01,0,.02,0,0,0,.02,0,.03,0,0,0,.01,0,.02,0,0,0,.02,0,.03,0,0,0,0,0,.01,0,.03,0,.06,0,.09,0,0,0,0,0,0,0,0,0,.02,0,.03,0,0,0,0,0,.01,0,0,0,.02,0,.03,0,0,0,0,0,.01,0,0,0,.02,0,.03,0,0,0,.01,0,.02,0,0,0,.02,0,.03,0,0,0,.01,0,.02,0,0,0,.02,0,.03,0,0,0,.01,0,.02,0,0,0,.02,0,.03,0,0,0,0,0,.01,0,.01,0,.02,0,.03,0,0,0,0,0,.01,0,.03,0,.06,0,.08,0,0,0,0,0,0,0,0,0,.02,0,.03,0,0,0,0,0,.01,0,0,0,.02,0,.03,0,0,0,.01,0,.02,0,0,0,.02,0,.03,0,0,0,.01,0,.02,0,0,0,.02,0,.03,0,0,0,.01,0,.02,0,0,0,.02,0,.03,0,0,0,.01,0,.02,0,0,0,.02,0,.03,0,0,0,0,0,.01,0,.01,0,.02,0,.03,0,0,0,0,0,.01,0,.03,0,.06,0,.08,0,0,0,0,0,0,0,0,0,.02,0,.03,0,0,0,0,0,.01,0,0,0,.02,0,.03,0,0,0,0,0,.01,0,0,0,.02,0,.03,0,0,0,.01,0,.02,0,0,0,.02,0,.03,0,0,0,.01,0,.02,0,0,0,.02,0,.03,0,0,0,.01,0,.02,0,0,0,.02,0,.03,0,0,0,0,0,.01,0,0,0,.02,0,.03,0,0,0,0,0,.01,0,.03,0,.06,0,.08,0,0,0,0,0,0,0,.01,0,.02,0,.03,0,0,0,0,0,.01,0,0,0,.02,0,.03,0,0,0,0,0,.01,0,0,0,.02,0,.03,0,0,0,0,0,.01,0,0,0,.02,0,.03,0,0,0,0,0,.01,0,0,0,.02,0,.03,0,0,0,0,0,.01,0,0,0,.02,0,.03,0,0,0,0,0,.01,0,.01,0,.02,0,.03,0,0,0,0,0,0,0,.03,0,.06,0,.08,0,0,0,0,0,0,0,0,0,.02,0,.03,0,0,0,0,0,.01,0,0,0,.02,0,.03,0,0,0,.01,0,.02,0,0,0,.02,0,.03,0,0,0,.01,0,.02,0,0,0,.02,0,.02,0,0,0,.01,0,.02,0,0,0,.02,0,.02,0,0,0,.01,0,.02,0,0,0,.01,0,.02,0,0,0,.01,0,.02,0,0,0,.02,0,.03,0,0,0,.01,0,.02,0h.03s0,0,0,0c.01,0,.03,0,.04,0,0,0,0,0,.01,0,0,0,.02,0,.03,0,0,0,0,0,.01,0,0,0,.02,0,.03,0,0,0,.01,0,.02,0,0,0,.02,0,.03,0,0,0,.01,0,.02,0,0,0,.02,0,.02,0,0,0,.01,0,.02,0,0,0,.02,0,.02,0,0,0,.01,0,.02,0,0,0,.02,0,.02,0,0,0,.01,0,.02,0,0,0,.02,0,.03,0,0,0,0,0,.01,0,0,0,.02,0,.03,0,0,0,0,0,0,0,.01,0,.03,0,.04,0,0,0,0,0,.01,0,0,0,.02,0,.03,0,0,0,.01,0,.02,0,0,0,.01,0,.02,0,0,0,.01,0,.02,0,0,0,.01,0,.02,0,0,0,.01,0,.02,0,0,0,.02,0,.02,0,0,0,.01,0,.02,0,0,0,.02,0,.02,0,0,0,.01,0,.02,0,0,0,.01,0,.02,0,0,0,.01,0,.02,0,0,0,.01,0,.02,0,0,0,.01,0,.02,0,0,0,.02,0,.03,0,0,0,0,0,.01,0,.01,0,.03,0,.04,0,0,0,.01,0,.02,0,0,0,.02,0,.02,0,0,0,.01,0,.02,0,0,0,.01,0,.02,0,0,0,.01,0,.02,0,0,0,.01,0,.02,0,0,0,.01,0,.02,0,0,0,.01,0,.02,0,0,0,.01,0,.02,0,0,0,.01,0,.02,0,0,0,.01,0,.02,0,0,0,.01,0,.02,0,0,0,.01,0,.02,0,0,0,.01,0,.02,0,0,0,.02,0,.02,0,0,0,.01,0,.01,0,.03,0,.06,0,.09.01,0,0,0,0,.01,0,0,0,0,0,0,0l2.97.39.77-5.95-2.97-.39c-2.09-.27-4.24-.41-6.39-.41h0ZM569.33,578.61l-2.9,5.26,2.59,1.43c1.13.62,2.23,1.29,3.31,2.01,0,0,0,0,0,0,.01,0,.02.01.03.02,0,0,0,0,0,0,.01,0,.02.01.03.02,0,0,0,0,0,0,0,0,.02.01.03.02,0,0,0,0,0,0,0,0,.02.01.03.02h0s.02.02.03.03c0,0,0,0,0,0,.02.01.05.03.07.05h0s.02.02.03.02c0,0,0,0,0,0,0,0,.02.01.03.02,0,0,0,0,.01,0,0,0,.01,0,.02.02,0,0,0,0,.01,0,0,0,.01,0,.02.01,0,0,0,0,.01,0,0,0,.01,0,.02.01,0,0,0,0,.01,0,0,0,.01,0,.02.01,0,0,0,0,.01,0,0,0,.01,0,.02.01,0,0,.01,0,.02.01,0,0,.01,0,.02.01,0,0,.02.01.03.02,0,0,.01,0,.02.01,0,0,.01,0,.02.01,0,0,.01,0,.02.01,0,0,.01,0,.02.01,0,0,0,0,.01,0,0,0,.01,0,.02.01,0,0,0,0,.01,0,0,0,.01,0,.02.01,0,0,0,0,.01,0,0,0,.01,0,.02.01,0,0,0,0,.01,0,0,0,.02.01.02.02,0,0,0,0,0,0,.04.03.08.05.12.08h0s.02.02.03.02c0,0,0,0,0,0,0,0,.02.01.03.02,0,0,0,0,0,0l.02.02h0s.02.02.03.02c0,0,0,0,0,0,0,0,.02.01.03.02h0c.06.05.12.09.18.13h0s.02.01.03.02h0s.02.02.03.02h0s.02.02.03.02h0c.08.06.17.12.25.18h0c.71.51,1.4,1.04,2.09,1.59h0c.07.06.14.11.21.17h0s.02.02.03.02h0s.02.02.03.03h0s.02.02.03.03h0s.02.02.03.03h0s.1.08.14.12c0,0,0,0,0,0,0,0,.02.01.02.02,0,0,0,0,0,0,0,0,.01.01.02.02,0,0,0,0,.01,0,0,0,.01.01.02.02,0,0,0,0,.01,0,0,0,.01.01.02.02,0,0,0,0,.01.01,0,0,.01.01.02.02,0,0,0,0,.01,0,0,0,.01.01.02.02,0,0,0,0,0,0,.01.01.03.02.04.03,0,0,0,0,.01.01,0,0,.01,0,.02.01,0,0,.01,0,.02.01,0,0,.01,0,.02.01,0,0,0,0,.02.01,0,0,.01,0,.01.01,0,0,.01,0,.02.01h.01s.01.02.02.03c0,0,0,0,.01.01,0,0,.01,0,.02.02,0,0,0,0,.01.01,0,0,.01,0,.02.02,0,0,0,0,.01.01,0,0,.01.01.02.02,0,0,0,0,0,0,0,0,.02.02.03.03,0,0,0,0,0,0,0,0,.02.02.03.03,0,0,0,0,0,0,0,0,.02.01.03.02,0,0,0,0,0,0,0,0,.02.02.03.02,0,0,0,0,0,0,0,0,.02.01.03.02,0,0,0,0,0,0,0,0,.02.01.03.02,0,0,0,0,0,0,0,0,.02.02.03.02,0,0,0,0,0,0,.05.05.11.09.16.14h0s.02.02.03.03h0c.21.18.43.38.64.56l2.22,1.98,3.99-4.48-2.24-1.99c-3.15-2.81-6.53-5.21-10.04-7.14l-2.63-1.45h0ZM591.72,597.97l-4.99,3.33,1.66,2.5c.53.8,1.05,1.61,1.55,2.43h0s.01.02.02.04h0s.01.03.02.04h0s.01.02.02.04h0s.01.03.02.04h0s.01.02.02.04h0s.01.03.02.04c0,0,0,0,0,0,0,0,.01.02.02.03,0,0,0,0,0,0,0,0,.01.02.02.03,0,0,0,0,0,0,0,0,.01.02.02.03,0,0,0,0,0,.01,0,0,0,.02.01.02,0,0,0,0,0,.01,0,0,.01.02.02.03h0s0,.03.01.04c0,0,0,.01,0,.01,0,0,0,.01.01.02,0,0,0,.01.01.02,0,0,0,.01.01.02,0,0,0,.01.01.02v.02s.02.01.02.02c0,0,0,.01.01.02,0,0,0,.01.01.02,0,0,0,0,0,.01,0,0,0,.01.01.02,0,0,0,0,0,.01,0,0,0,.01.01.02,0,0,0,0,0,.01,0,0,0,.01.01.02,0,0,0,.01.01.02,0,0,0,.01.01.02,0,0,0,0,0,.01,0,0,0,.02.01.02,0,0,0,0,0,.01,0,0,0,.02.01.02,0,0,0,0,0,.01,0,0,0,.02.01.02,0,0,0,0,0,.01,0,0,0,.02.02.03,0,0,0,0,0,0,0,0,.01.02.02.03,0,0,0,0,0,.01,0,0,0,.02.02.03,0,0,0,0,0,.01,0,0,0,.01.01.02,0,0,0,0,0,.01,0,0,0,.02.02.03,0,0,0,0,0,0,0,0,.01.02.02.03,0,0,0,0,0,0,0,.01.01.02.02.03,0,0,0,0,0,0,0,0,.01.02.02.03,0,0,0,0,0,0,.01.02.03.05.04.07,0,0,0,0,0,0,0,.01.01.02.02.03,0,0,0,0,0,0,0,0,.01.02.02.03,0,0,0,0,0,0,0,.01.01.02.02.03,0,0,0,0,0,0,0,.01.01.02.02.03,0,0,0,0,0,0,0,.01.01.02.02.04,0,0,0,0,0,0,0,.01.01.02.02.03,0,0,0,0,0,0,0,.01.01.02.02.03,0,0,0,0,0,0,0,.01.01.02.02.03,0,0,0,0,0,0,0,.01.01.02.02.03h0s.01.03.02.03c0,0,0,0,0,0,0,0,.01.02.02.03,0,0,0,0,0,0,0,0,.01.02.02.03,0,0,0,0,0,0,0,0,.01.02.02.03,0,0,0,0,0,0,0,0,.01.02.02.03,0,0,0,0,0,0,0,.01.01.02.02.03,0,0,0,0,0,0,0,.01.01.02.02.04,0,0,0,0,0,0,0,.01.01.02.02.03,0,0,0,0,0,0,0,0,.01.02.02.03,0,0,0,0,0,0,0,.01.01.02.02.03,0,0,0,0,0,0,0,.01.01.02.02.03,0,0,0,0,0,0,0,0,.01.02.02.03,0,0,0,0,0,0,0,0,.01.02.02.03,0,0,0,0,0,0,0,0,.01.02.02.03,0,0,0,0,0,0,0,0,.01.02.02.03,0,0,0,0,0,0,0,0,.01.02.02.03,0,0,0,0,0,0,0,0,.01.02.02.03,0,0,0,0,0,.01,0,0,.01.02.02.03,0,0,0,0,0,0,0,0,.01.02.02.03,0,0,0,0,0,0,0,0,.01.02.02.03,0,0,0,0,0,0,0,0,.01.02.02.03,0,0,0,0,0,0,0,.01.01.02.02.03,0,0,0,0,0,0,0,.01.01.02.02.03,0,0,0,0,0,0,0,0,.01.02.02.03,0,0,0,0,0,0,0,0,.01.02.02.03,0,0,0,0,0,.01,0,0,.01.02.02.03,0,0,0,0,0,0,0,0,.01.02.02.03,0,0,0,0,0,0,0,0,.01.02.02.03,0,0,0,0,0,0,0,0,.01.02.02.03,0,0,0,0,0,.01,0,0,.01.02.02.03,0,0,0,0,0,0,0,0,.01.02.02.03,0,0,0,0,0,.01,0,0,0,.02.01.03,0,0,0,0,0,.01,0,0,0,.01.01.02,0,0,0,.01,0,.02,0,0,0,.01.01.02,0,0,0,0,0,.01,0,0,0,.01.01.02,0,0,0,0,0,.01,0,0,0,.01.01.02,0,0,0,0,0,.01,0,0,0,.01.01.02,0,0,0,0,0,.01,0,0,0,.02.01.03,0,0,0,0,0,.01,0,0,0,.02.01.03,0,0,0,0,0,.01,0,0,0,.01.01.02,0,0,0,.01,0,.02,0,0,0,.01.01.02,0,0,0,.01.01.02,0,0,0,.01.01.02,0,0,0,.01,0,.02,0,0,0,.01.01.02,0,0,0,.01.01.02,0,0,0,.01,0,.02,0,0,0,.01.01.02,0,0,0,.01,0,.02,0,0,0,.01.01.02,0,0,0,.01,0,.02,0,0,0,.01.01.02,0,0,0,.01,0,.02,0,0,0,.01.01.02,0,0,0,.01,0,.01,0,0,0,.02.01.02,0,0,0,0,0,.01,0,0,0,.02.01.03,0,0,0,0,0,.01,0,0,0,.02.01.03,0,0,0,.01,0,.01,0,0,0,.02.01.02,0,0,0,.01,0,.01,0,0,0,.02.01.02,0,0,0,.01,0,.01,0,0,0,.02.01.02,0,0,0,.01,0,.01,0,0,0,.02.01.02,0,0,0,.01,0,.02,0,0,0,.02.01.02,0,0,0,0,0,.01,0,0,.01.02.02.03,0,0,0,0,0,0,0,.01.01.02.02.03,0,0,0,0,0,0,0,.01.01.02.02.03,0,0,0,0,0,0,0,0,.01.02.02.03,0,0,0,0,0,0,0,.01.01.02.02.03,0,0,0,0,0,0,0,.01.01.02.02.03h0s.01.03.02.04h0s.01.03.02.04h0c.56,1.04,1.1,2.1,1.62,3.18l1.3,2.7,5.4-2.61-1.3-2.7c-1.75-3.64-3.72-7.1-5.84-10.28l-1.66-2.5h0ZM604.42,623.73l-5.76,1.68.84,2.88c.35,1.2.68,2.41.99,3.63h0s0,.03.01.04h0s0,.03,0,.04h0s0,.03,0,.04c0,0,0,0,0,.01,0,.01,0,.02,0,.03,0,0,0,0,0,.01,0,.01,0,.02,0,.03,0,0,0,0,0,.01,0,.01,0,.02,0,.03,0,0,0,0,0,.01,0,.01,0,.02,0,.03,0,0,0,0,0,.01,0,.01,0,.03.01.04,0,0,0,.01,0,.01,0,0,0,.02,0,.03,0,0,0,.02,0,.02,0,0,0,.01,0,.02,0,.01,0,.02,0,.03,0,0,0,.01,0,.02,0,.01,0,.02,0,.03,0,0,0,0,0,.01,0,0,0,.02,0,.03,0,0,0,0,0,.01,0,0,0,.02,0,.03,0,0,0,0,0,0,0,.01,0,.02,0,.03,0,0,0,0,0,0,.46,1.86.87,3.74,1.24,5.65,0,0,0,0,0,0,0,.02,0,.03,0,.04,0,0,0,0,0,0,0,.01,0,.03,0,.04,0,0,0,0,0,0,0,.01,0,.03,0,.04,0,0,0,0,0,0,0,.02,0,.03,0,.04,0,0,0,0,0,0,0,.04.01.07.02.1,0,0,0,.01,0,.02,0,0,0,.02,0,.02,0,0,0,.02,0,.03,0,0,0,.01,0,.02,0,.01,0,.02,0,.03,0,0,0,0,0,.01,0,.01,0,.02,0,.03,0,0,0,0,0,.01,0,.01,0,.02,0,.03,0,0,0,0,0,.01,0,.01,0,.03,0,.04h0c.01.08.03.16.04.23l.55,2.95,5.9-1.09-.55-2.95c-.71-3.84-1.61-7.63-2.67-11.28l-.84-2.88h0ZM609.71,651.59l-5.99.29.14,2.93c.04.75.07,1.5.09,2.25,0,0,0,0,0,0,0,.01,0,.02,0,.03,0,0,0,.01,0,.02,0,0,0,.02,0,.03,0,0,0,.01,0,.02,0,0,0,.02,0,.03,0,0,0,.01,0,.02,0,0,0,.02,0,.02,0,0,0,.02,0,.03,0,0,0,.01,0,.02,0,.05,0,.1,0,.14h0s0,.03,0,.05h0c.06,2.16.06,4.32,0,6.49h0s0,.03,0,.05h0s0,.04,0,.05h0s0,.1,0,.15c0,0,0,0,0,0v.04s0,.01,0,.01c0,.01,0,.02,0,.03,0,0,0,.01,0,.02,0,0,0,.02,0,.03,0,0,0,.02,0,.02,0,0,0,.01,0,.02,0,.01,0,.02,0,.03,0,0,0,0,0,.01,0,.04,0,.07,0,.11,0,0,0,0,0,0,0,.01,0,.02,0,.04,0,0,0,0,0,0,0,.01,0,.03,0,.04,0,0,0,0,0,0,0,.01,0,.03,0,.04,0,0,0,0,0,0-.01.41-.03.84-.05,1.25l-.13,2.95,5.99.26.13-3c.16-3.83.16-7.71-.03-11.54l-.14-3h0ZM602.67,678.81l-.52,2.88c-.6,3.37-1.35,6.72-2.26,10.04,0,0,0,0,0,0,0,.01,0,.02,0,.03,0,0,0,0,0,.01,0,0,0,.02,0,.03,0,0,0,.01,0,.02,0,0,0,.02,0,.03,0,0,0,.01,0,.02,0,0,0,.02,0,.03,0,0,0,.01,0,.02,0,.01,0,.03-.01.04,0,0,0,.02,0,.03,0,0,0,.01,0,.02,0,0,0,.02,0,.03,0,0,0,.01,0,.02,0,0,0,.02,0,.03,0,0,0,0,0,.02,0,.01,0,.02,0,.03,0,0,0,0,0,.01-.03.11-.06.23-.1.34l-.81,2.89,5.78,1.63.81-2.89c1.03-3.67,1.9-7.47,2.59-11.29l.53-2.95-5.91-1.06h0ZM595.46,704.77l-1.21,2.67c-.69,1.52-1.41,3.02-2.17,4.5,0,0,0,0,0,.01,0,0,0,.02-.01.03,0,0,0,.01,0,.02,0,0,0,.02-.01.03,0,0,0,.01,0,.02,0,.01,0,.01-.01.02,0,0,0,.01,0,.02,0,.01-.01.02-.02.03,0,0-.01.02-.02.03,0,0,0,0,0,.01,0,0,0,.02-.01.03,0,0,0,0,0,.02,0,0,0,.02-.01.03,0,0,0,0,0,.01,0,.01-.01.02-.02.03,0,0,0,0,0,.01-.03.06-.06.12-.09.18h0c-.85,1.62-1.74,3.22-2.68,4.79l-1.54,2.58,4.71,2.81c.36-.27.74-.56,1.1-.83l.15-.25.07.08c.95-.73,1.89-1.46,2.81-2.2,0,0,0,0,0,0,.16-.13.32-.25.48-.38,0,0,0,0,0,0,.02-.02.03-.03.05-.04,0,0,0,0,0,0,.02-.02.03-.03.05-.04,0,0,0,0,0,0,.02-.02.04-.03.06-.04,0,0,0,0,0,0,.02-.02.04-.03.06-.05,0,0,0,0,0,0,.08-.06.15-.12.23-.18,0,0,.01,0,.02-.01.02-.01.03-.02.04-.04,0,0,.01,0,.02-.01.02-.01.03-.02.04-.03,0,0,.01-.01.02-.02.02-.01.03-.02.04-.03,0,0,.01-.01.02-.02.02-.01.03-.02.04-.03,0,0,.01-.01.02-.02.02-.01.03-.02.04-.03,0,0,.01,0,.02-.01.05-.04.09-.08.14-.12,0,0,.02-.01.03-.02.02-.01.02-.02.03-.03.01,0,.02-.02.03-.02s.02-.02.03-.03c.01,0,.02-.02.03-.03.01,0,.02-.02.03-.03.01,0,.02-.02.03-.03.01,0,.02-.02.03-.02.01-.01.02-.02.04-.03,0,0,.02-.02.03-.02.01-.01.03-.02.04-.03,0,0,.02-.01.03-.02.02-.01.03-.02.05-.04,0,0,.01-.01.02-.01.02-.02.04-.03.06-.05,0,0,0,0,.01-.01.02-.01.03-.03.05-.04,0,0,.01-.01.02-.02.01-.01.03-.02.04-.04,0,0,.02-.01.02-.02.01-.01.03-.02.04-.04,0,0,.01,0,.02-.02.02-.01.03-.02.05-.04,0,0,.01-.01.02-.02.01-.01.03-.02.04-.04,0,0,.01-.01.02-.02.02-.01.03-.03.05-.04h.01c.07-.06.13-.12.2-.17h0s.04-.04.06-.05c0,0,0,0,0,0,.02-.02.04-.03.06-.05h0s.04-.04.06-.05c0,0,0,0,0,0,.02-.02.04-.03.06-.05,0,0,0,0,0,0,1.73-1.43,3.41-2.87,5.05-4.33h0s.08-.08.12-.11h.02c.75-.68,1.48-1.34,2.21-2.01l-3.97-4.47-2.15,1.91.41-.9-5.46-2.48h0ZM583.89,725.08c-2.08,2.79-4.32,5.47-6.75,8.03h0c2.89-1.83,5.69-3.69,8.4-5.58l-1.66-2.45h0ZM620.47,687.21l-1.91,2.31c-2.22,2.69-4.59,5.36-7.03,7.95l-2.06,2.18,4.35,4.1c.69-.71,1.37-1.41,2.04-2.12l.04-.04c2.56-2.72,4.99-5.47,7.28-8.24l.04-.05c.63-.76,1.24-1.52,1.85-2.28l-4.6-3.81h0ZM634.8,665.6l-1.48,2.61c-1.72,3.03-3.59,6.05-5.56,8.98l-1.67,2.49,4.96,3.32c1.76-2.52,3.42-5.06,4.98-7.6,0,0,0,0,0,0,.03-.05.06-.1.09-.15,0,0,0,0,0-.01.01-.02.02-.03.03-.05,0,0,0-.01,0-.02.02-.03.04-.06.05-.08,0,0,0,0,0-.01,0-.01.02-.03.02-.04,0,0,0-.01.01-.02,0-.01.02-.02.02-.04,0,0,.01-.02.02-.03.01-.02.02-.04.03-.06,0-.01.01-.02.02-.03,0-.01.01-.02.02-.03l.02-.03s.01-.02.02-.03c0-.02.02-.03.03-.05,0-.01.02-.03.02-.04,0-.01.02-.03.02-.04,0,0,.01-.02.02-.03,0-.01.02-.03.03-.04,0,0,0-.01.01-.02.01-.02.03-.04.04-.06,0,0,0,0,0-.01.01-.02.02-.03.03-.05,0,0,0-.01.01-.02.01-.02.02-.04.03-.06,0,0,0,0,0,0,.01-.02.03-.05.04-.07h0s.02-.05.03-.07c0,0,0,0,0-.01.03-.05.06-.09.08-.14h0s.03-.05.04-.07c0,0,0,0,0,0,.03-.05.06-.09.09-.14,0,0,0,0,0,0,.52-.88,1.04-1.76,1.54-2.64l.03-.05c.49-.86.96-1.72,1.43-2.58l-5.19-2.95h0ZM644.89,641.83l-.96,2.84c-1.12,3.29-2.38,6.6-3.77,9.82l-1.18,2.76,5.48,2.36c1.42-3.11,2.7-6.23,3.85-9.34,0,0,0,0,0,0,0-.02.01-.03.02-.05,0,0,0,0,0,0,.03-.09.07-.18.1-.27,0,0,0,0,0,0,.02-.05.04-.1.06-.16,0,0,0,0,0,0,.01-.04.03-.07.04-.11h0s.01-.04.02-.05c0,0,0,0,0,0,.03-.09.07-.18.1-.27,0,0,0,0,0,0,.04-.11.08-.21.12-.32,0,0,0,0,0,0,.01-.04.03-.07.04-.11,0,0,0,0,0,0,.62-1.72,1.2-3.44,1.74-5.16l-5.65-1.92h0ZM650.07,616.61l-.37,2.98c-.43,3.45-1.01,6.93-1.74,10.35l-.62,2.94,5.84,1.23c.68-2.9,1.26-5.79,1.73-8.65,0,0,0,0,0,0,.01-.07.02-.14.03-.21,0,0,0,0,0,0,0-.02,0-.03,0-.05,0,0,0,0,0,0,0-.05.02-.1.02-.15,0,0,0,0,0,0,0-.02,0-.03,0-.04,0,0,0,0,0,0,0-.02,0-.03,0-.05,0,0,0,0,0,0,0-.02,0-.03,0-.05,0,0,0,0,0,0,0-.01,0-.03,0-.04,0,0,0-.01,0-.02,0,0,0-.02,0-.03,0,0,0-.01,0-.02,0-.01,0-.02,0-.04,0,0,0,0,0-.01,0-.02,0-.03,0-.05,0,0,0,0,0-.01,0,0,0-.02,0-.03,0,0,0-.01,0-.02,0,0,0-.02,0-.03,0,0,0-.01,0-.02,0-.01,0-.02,0-.04,0,0,0,0,0-.01,0-.02,0-.03,0-.05,0,0,0,0,0-.02,0,0,0-.02,0-.03,0,0,0-.01,0-.02,0,0,0-.02,0-.03,0,0,0-.01,0-.02,0-.01,0-.02,0-.04,0,0,0,0,0-.01,0-.02,0-.03,0-.05,0,0,0,0,0-.01,0,0,0-.02,0-.03,0,0,0-.01,0-.02,0,0,0-.02,0-.03,0,0,0-.01,0-.02,0,0,0-.02,0-.03,0,0,0-.01,0-.02,0-.02,0-.03,0-.05,0,0,0-.01,0-.02,0,0,0-.02,0-.03,0,0,0-.02,0-.02,0,0,0-.02,0-.02,0,0,0-.02,0-.02,0,0,0-.02,0-.03,0,0,0-.01,0-.02,0-.02,0-.03,0-.05,0,0,0-.01,0-.02,0,0,0-.02,0-.03,0,0,0-.01,0-.02,0,0,0-.02,0-.03,0,0,0-.01,0-.02,0-.01,0-.02,0-.04,0,0,0,0,0-.01,0-.02,0-.03,0-.05,0,0,0-.01,0-.02,0,0,0-.02,0-.03,0,0,0-.01,0-.02,0,0,0-.02,0-.03,0,0,0-.01,0-.02,0,0,0-.02,0-.03,0,0,0-.01,0-.02,0-.02,0-.03,0-.05,0,0,0,0,0-.01,0,0,0-.03,0-.03,0,0,0-.01,0-.02,0,0,0-.02,0-.03,0,0,0-.01,0-.02,0,0,0-.02,0-.03,0,0,0-.01,0-.02,0-.02,0-.03,0-.05,0,0,0-.01,0-.02,0,0,0-.02,0-.03,0,0,0-.01,0-.02,0,0,0-.02,0-.03,0,0,0,0,0-.01,0-.04,0-.06.01-.1,0,0,0,0,0,0,0-.01,0-.03,0-.04,0,0,0,0,0-.01,0-.01,0-.03,0-.04h0s0-.07.01-.11c0,0,0,0,0,0,0-.02,0-.03,0-.05,0,0,0,0,0,0,0-.02,0-.03,0-.05,0,0,0,0,0,0,0-.05.01-.1.02-.16,0,0,0,0,0,0,.24-1.73.45-3.44.63-5.15l-5.92-.74h0ZM655.83,590.4l-5.94.54.27,2.99c.31,3.44.48,6.95.48,10.45v3s5.97,0,5.97,0c.02-1.07.03-2.13.03-3.19h0s0-.03,0-.05c0,0,0,0,0,0,0-.02,0-.03,0-.04,0,0,0,0,0,0,0-.08,0-.16,0-.25h0s0-.03,0-.05c0,0,0,0,0,0,0-.02,0-.03,0-.04,0,0,0,0,0,0,0-.07,0-.13,0-.2h0s0-.03,0-.05h0s0-.03,0-.05c0,0,0,0,0,0,0-.02,0-.03,0-.05,0,0,0,0,0,0,0-.07,0-.13,0-.2h0s0-.03,0-.05c0,0,0,0,0,0,0-.02,0-.03,0-.05,0,0,0,0,0,0,0-.08,0-.16,0-.25,0,0,0,0,0,0,0-.02,0-.03,0-.05h0s0-.03,0-.05c0,0,0,0,0,0,0-.07,0-.13,0-.2,0,0,0,0,0,0,0-.02,0-.03,0-.04,0,0,0,0,0,0,0-.02,0-.03,0-.04,0,0,0,0,0,0,0-.02,0-.03,0-.05,0,0,0,0,0,0,0-.07,0-.13,0-.2,0,0,0,0,0,0,0-.02,0-.03,0-.04,0,0,0,0,0,0,0-.02,0-.03,0-.04,0,0,0,0,0,0,0-.02,0-.03,0-.04,0,0,0,0,0,0,0-.05,0-.1,0-.15,0,0,0,0,0,0,0-.02,0-.03,0-.04,0,0,0,0,0,0,0-.02,0-.02,0-.04,0,0,0,0,0,0,0-.01,0-.03,0-.04,0,0,0,0,0-.01,0-.02,0-.03,0-.04,0,0,0,0,0,0,0-.05,0-.1,0-.15,0,0,0,0,0,0,0-.02,0-.02,0-.04,0,0,0,0,0,0,0-.02,0-.02,0-.04,0,0,0,0,0,0,0-.01,0-.03,0-.04,0,0,0,0,0-.01,0-.01,0-.03,0-.04,0,0,0,0,0,0,0-.03,0-.06,0-.1,0,0,0,0,0,0,0-.02,0-.03,0-.04,0,0,0,0,0-.01,0,0,0-.03,0-.03,0,0,0-.01,0-.02,0,0,0-.02,0-.03,0,0,0-.01,0-.02,0,0,0-.02,0-.03,0,0,0-.01,0-.02,0-.01,0-.02,0-.03,0,0,0,0,0-.01,0-.02,0-.03,0-.05,0,0,0,0,0-.01,0-.01,0-.02,0-.04,0,0,0-.01,0-.02,0,0,0-.02,0-.03,0,0,0-.01,0-.02,0,0,0-.02,0-.03,0,0,0-.01,0-.02,0,0,0-.02,0-.03,0,0,0-.01,0-.02,0,0,0-.02,0-.03,0,0,0-.01,0-.02,0-.01,0-.01,0-.03,0,0,0-.01,0-.02,0-.02,0-.03,0-.04,0,0,0-.01,0-.02,0,0,0-.02,0-.02,0,0,0-.02,0-.03,0,0,0-.01,0-.02,0,0,0-.02,0-.02,0,0,0-.01,0-.02,0,0,0-.02,0-.02,0,0,0-.02,0-.02,0,0,0-.02,0-.02,0,0,0-.02,0-.02,0,0,0-.02,0-.03,0,0,0,0,0-.02,0-.02,0-.04,0-.05,0,0,0,0,0-.02,0,0,0-.02,0-.03,0,0,0-.02,0-.02,0,0,0-.02,0-.03,0,0,0-.01,0-.02,0-.01,0-.02,0-.03,0,0,0,0,0-.01,0-.01,0-.02,0-.03,0,0,0-.01,0-.01,0-.01,0-.02,0-.03,0,0,0,0,0-.01,0-.04,0-.07,0-.11h0s0-.03,0-.04c0,0,0-.01,0-.02,0,0,0-.02,0-.03,0,0,0,0,0-.02,0,0,0-.02,0-.03,0,0,0,0,0-.01,0-.01,0-.02,0-.03,0,0,0,0,0,0,0-.01,0-.02,0-.04h0c0-.06,0-.11,0-.17,0,0,0,0,0-.01,0-.01,0-.02,0-.03,0,0,0,0,0-.01,0-.01,0-.02,0-.04,0,0,0,0,0,0,0-.01,0-.02,0-.04h0c0-.06,0-.12,0-.17h0s0-.03,0-.04c0,0,0,0,0,0,0-.01,0-.02,0-.04h0s0-.03,0-.04c0,0,0,0,0,0,0-.07,0-.14,0-.21h0s0-.03,0-.04c0,0,0,0,0,0,0-.01,0-.02,0-.04h0c-.08-1.75-.2-3.48-.35-5.18h0s0-.03,0-.04h0c0-.06,0-.12-.01-.17h0c-.09-1.01-.19-2-.31-2.98h0ZM649.51,564.22l-5.62,1.96.99,2.83c1.11,3.2,2.08,6.55,2.88,9.96l.68,2.92,5.8-1.36c-.2-.96-.41-1.92-.63-2.86l-.02-.07c-.44-1.87-.92-3.71-1.44-5.51,0,0,0,0,0,0,0,0,0-.02,0-.03,0,0,0,0,0-.02,0,0,0-.01,0-.02,0,0,0-.01,0-.02,0,0,0-.02,0-.02,0,0,0-.01,0-.02,0,0,0-.01,0-.02s0-.02,0-.02c0,0,0,0,0-.01v-.03s-.01,0-.01-.01c0-.01,0-.02,0-.03,0,0,0,0,0-.01,0-.01,0-.02,0-.03,0,0,0,0,0-.01,0-.01,0-.02,0-.03,0,0,0,0,0,0,0-.01,0-.02-.01-.04,0,0,0,0,0,0,0-.01,0-.02-.01-.04,0,0,0,0,0,0,0-.01,0-.02-.01-.04,0,0,0,0,0,0-.75-2.55-1.59-5.01-2.5-7.4h0ZM636.05,540.97l-4.67,3.65,1.85,2.36c1.99,2.54,3.86,5.37,5.57,8.4l1.47,2.62,5.18-2.91c-.46-.89-.93-1.77-1.42-2.63h0s0-.01,0-.01c0-.01-.01-.02-.02-.03,0,0,0,0,0,0,0-.01-.01-.02-.02-.03h0s-.01-.03-.02-.04c0,0,0,0,0,0,0-.01-.01-.02-.02-.04h0c-.03-.05-.06-.1-.09-.16h0s-.01-.03-.02-.04h0s-.01-.03-.02-.04h0s-.01-.03-.02-.04h0c-.03-.05-.06-.1-.09-.16h0s-.01-.02-.02-.04c0,0,0,0,0,0,0-.01-.01-.02-.02-.03h0s-.01-.03-.02-.04c0,0,0,0,0,0,0-.01-.01-.02-.02-.03h0s-.01-.03-.02-.04h0s-.04-.08-.07-.12h0s-.01-.03-.02-.04c0,0,0,0,0,0,0-.01-.01-.02-.02-.03h0s-.01-.03-.02-.04c0,0,0,0,0,0,0-.01-.01-.02-.02-.03h0c-.03-.05-.06-.1-.09-.15h0s-.01-.03-.02-.04c0,0,0,0,0,0,0,0-.01-.02-.02-.03,0,0,0,0,0,0,0-.01-.01-.02-.02-.03,0,0,0,0,0,0-.03-.05-.06-.1-.09-.15h0s-.01-.02-.02-.04c0,0,0,0,0,0,0,0-.01-.02-.02-.03,0,0,0,0,0-.01,0,0-.01-.02-.02-.03,0,0,0,0,0,0,0-.01-.01-.02-.02-.03,0,0,0,0,0,0,0-.01-.01-.02-.02-.03h0s-.04-.08-.07-.11c0,0,0,0,0,0,0,0-.01-.02-.02-.03,0,0,0,0,0-.01,0,0,0-.02-.01-.02,0,0,0,0,0-.01,0,0,0-.02-.01-.02,0,0,0,0,0-.01l-.02-.03s0,0,0-.01c0,0-.01-.02-.02-.03,0,0,0,0,0,0l-.02-.03s0,0,0-.01c0,0-.01-.02-.02-.03,0,0,0,0,0-.01,0,0,0-.01-.01-.02,0,0,0,0-.01-.02,0,0,0-.01-.01-.02,0,0,0-.01-.01-.02,0,0,0-.01-.01-.02,0,0,0-.01-.01-.02,0,0,0-.01-.01-.02,0,0,0-.01-.01-.02,0,0,0-.01-.01-.02,0,0,0-.01-.01-.02,0,0,0-.01,0-.02s0-.01-.01-.02c0,0,0,0,0,0-.01-.02-.02-.03-.03-.05,0,0,0,0,0,0,0,0,0-.01-.01-.02,0,0,0,0,0-.01,0,0,0-.01-.01-.02,0,0,0,0,0-.01,0,0,0-.02-.01-.02,0,0,0,0,0-.01,0,0,0-.01-.01-.02,0,0,0,0,0-.01,0,0,0-.02-.01-.02,0,0,0,0,0,0-.03-.05-.06-.1-.09-.15,0,0,0,0,0,0,0,0-.01-.02-.02-.03,0,0,0,0,0,0,0-.01,0-.02-.02-.03,0,0,0,0,0,0,0-.01-.01-.02-.02-.03,0,0,0,0,0,0-.04-.06-.08-.13-.12-.19,0,0,0,0,0,0,0-.01-.01-.02-.02-.03,0,0,0,0,0,0,0-.01-.01-.02-.02-.03,0,0,0,0,0,0-.05-.09-.11-.17-.16-.26,0,0,0,0,0,0-.94-1.5-1.92-2.93-2.93-4.31,0,0,0,0,0,0,0,0-.01-.01-.02-.02,0,0,0,0,0,0,0,0-.01-.01-.02-.02,0,0,0,0,0,0,0,0-.01-.02-.02-.02,0,0,0,0,0,0,0,0-.01-.02-.02-.02,0,0,0,0,0,0-.02-.02-.03-.05-.05-.07,0,0,0,0,0-.01,0,0,0-.01-.01-.02,0,0,0,0-.01-.01,0,0,0,0-.01-.02,0,0,0-.01-.01-.02,0,0,0,0-.01-.01,0,0,0-.01-.01-.02,0,0,0,0-.01-.01,0,0,0-.01-.01-.02,0,0,0,0,0-.01,0,0-.01-.02-.02-.02,0,0,0,0,0,0-.02-.03-.05-.06-.07-.1h0s-.01-.02-.02-.03c0,0,0,0,0,0,0,0-.01-.02-.02-.03,0,0,0,0,0,0,0,0-.01-.02-.02-.03h0c-.25-.34-.5-.66-.76-.99l-.02-.03c-.62-.79-1.24-1.55-1.88-2.29h0ZM615.25,523.96l-3.1,5.07,2.56,1.56c2.83,1.73,5.59,3.71,8.21,5.9l2.3,1.92,3.81-4.56c-.75-.67-1.5-1.33-2.27-1.97,0,0,0,0-.01,0,0,0-.02-.02-.03-.03,0,0,0,0-.01-.01-.01-.01-.03-.02-.04-.03,0,0,0,0,0,0-.01-.01-.02-.02-.04-.03,0,0,0,0-.01-.01-.01,0-.02-.02-.03-.03,0,0,0,0,0,0-.01-.01-.03-.02-.04-.03,0,0,0,0-.01,0-.01,0-.02-.02-.04-.03,0,0,0,0,0,0-.01-.01-.03-.02-.04-.03,0,0,0,0,0,0-.01,0-.02-.02-.03-.03,0,0,0,0,0,0-.02-.01-.03-.02-.04-.04,0,0,0,0,0,0-.01-.01-.03-.02-.04-.03,0,0,0,0,0,0-.03-.02-.06-.05-.09-.07,0,0,0,0,0,0-.01-.01-.03-.02-.04-.03,0,0,0,0,0,0-.02-.01-.03-.02-.05-.04,0,0,0,0,0,0-.01-.01-.03-.02-.04-.03,0,0,0,0,0,0-.02-.01-.03-.02-.05-.04,0,0,0,0,0,0-.02-.01-.03-.02-.04-.04,0,0,0,0,0,0-.03-.02-.06-.05-.09-.07,0,0,0,0,0,0-.03-.03-.06-.05-.09-.08,0,0,0,0,0,0-1.4-1.13-2.84-2.21-4.31-3.23h0s-.07-.05-.1-.07c0,0,0,0,0,0-.03-.02-.07-.05-.1-.07h0s-.1-.07-.15-.1c0,0,0,0,0,0-.03-.02-.07-.04-.1-.07,0,0,0,0,0,0-.03-.02-.07-.04-.1-.07,0,0,0,0,0,0-.03-.02-.06-.04-.1-.07,0,0,0,0,0,0-.02-.01-.03-.02-.05-.03h0s-.03-.02-.05-.03c0,0,0,0,0,0-.02-.01-.03-.02-.05-.03,0,0,0,0,0,0-.03-.02-.06-.04-.09-.06,0,0,0,0,0,0-.01,0-.03-.02-.04-.03,0,0,0,0,0,0-.02-.01-.03-.02-.05-.03h0s-.03-.02-.04-.03c0,0,0,0,0,0-.02-.01-.03-.02-.05-.03,0,0,0,0,0,0-.01,0-.03-.02-.04-.03,0,0,0,0,0,0-.02-.01-.03-.02-.05-.03,0,0,0,0,0,0-.01,0-.03-.02-.04-.03,0,0,0,0,0,0-.03-.02-.06-.04-.09-.06,0,0,0,0-.01,0-.01,0-.03-.02-.04-.03,0,0,0,0,0,0-.02,0-.03-.02-.05-.03,0,0,0,0-.01,0-.01,0-.02-.02-.03-.02,0,0,0,0-.01,0-.02,0-.03-.02-.04-.03,0,0,0,0-.01,0-.01,0-.02-.01-.03-.02,0,0-.01,0-.02-.01-.01,0-.03-.02-.04-.03,0,0,0,0-.01,0-.01,0-.02-.01-.03-.02h-.02s-.02-.02-.03-.03c0,0-.02-.01-.03-.02-.01,0-.02-.01-.03-.02,0,0-.01,0-.02-.01,0,0-.02-.01-.03-.02,0,0-.01,0-.02-.01-.01,0-.03-.02-.04-.03,0,0-.01,0-.02-.01,0,0-.02-.01-.03-.02,0,0-.01,0-.02-.01-.01,0-.03-.02-.04-.03,0,0-.01,0-.02-.01,0,0-.02-.01-.03-.02,0,0-.01,0-.02-.01,0,0-.02-.01-.03-.02,0,0-.02-.01-.03-.02,0,0-.02-.01-.03-.02,0,0-.02,0-.02-.01,0,0-.02,0-.02-.01-.01,0-.02-.01-.03-.02,0,0-.02-.01-.03-.02,0,0-.02,0-.02-.01,0,0-.01,0-.02-.01,0,0-.02,0-.02-.01-.01,0-.02-.02-.04-.02,0,0-.02,0-.02-.01,0,0-.01,0-.02-.01,0,0-.02,0-.02-.01,0,0-.01,0-.02-.01-.02,0-.03-.02-.04-.03,0,0-.01,0-.02-.01,0,0-.02-.01-.03-.02,0,0,0,0-.01,0-.02-.01-.03-.02-.05-.03,0,0,0,0-.01,0,0,0-.02-.01-.03-.02,0,0,0,0-.01,0-.03-.02-.06-.04-.09-.06,0,0,0,0-.01,0-.03-.02-.06-.04-.1-.06,0,0,0,0-.01,0-.01,0-.02-.01-.03-.02,0,0,0,0,0,0-.02-.01-.04-.03-.06-.04,0,0,0,0,0,0-.01,0-.02-.01-.03-.02,0,0,0,0,0,0-.03-.02-.07-.04-.1-.06,0,0,0,0,0,0-.03-.02-.07-.04-.1-.06,0,0,0,0,0,0-.11-.07-.22-.13-.33-.2h-.02c-.85-.53-1.7-1.03-2.57-1.51h0ZM589.79,515.45l-1.09,5.84,2.95.55c3.38.63,6.68,1.49,9.81,2.55l2.84.96,1.91-5.62c-2.67-1.03-5.43-1.91-8.29-2.64,0,0,0,0,0,0-.04-.01-.08-.02-.12-.03,0,0,0,0,0,0-.04-.01-.08-.02-.12-.03,0,0,0,0,0,0-.04-.01-.08-.02-.12-.03,0,0,0,0,0,0-.04-.01-.08-.02-.12-.03,0,0,0,0,0,0-.04,0-.08-.02-.12-.03,0,0,0,0,0,0-.04,0-.08-.02-.12-.03,0,0,0,0,0,0-.04,0-.08-.02-.12-.03,0,0,0,0,0,0-.04,0-.08-.02-.12-.03,0,0,0,0,0,0-.04,0-.08-.02-.12-.03,0,0,0,0,0,0-.02,0-.04,0-.06-.01,0,0,0,0,0,0-.02,0-.04,0-.06-.01,0,0,0,0,0,0-.02,0-.04,0-.06-.01,0,0,0,0,0,0-.02,0-.04,0-.06-.01,0,0,0,0,0,0-.02,0-.04,0-.06-.01,0,0,0,0,0,0-.02,0-.04,0-.05-.01,0,0,0,0-.01,0-.02,0-.04,0-.06-.01,0,0,0,0,0,0-.02,0-.04,0-.05-.01,0,0,0,0-.01,0-.02,0-.04,0-.06-.01,0,0,0,0,0,0-.02,0-.03,0-.05-.01,0,0,0,0-.01,0-.02,0-.04,0-.06-.01,0,0,0,0,0,0-.02,0-.03,0-.05-.01,0,0,0,0-.01,0-.02,0-.04,0-.05-.01,0,0,0,0-.01,0-.02,0-.03,0-.05-.01,0,0,0,0-.01,0-.02,0-.04,0-.05-.01,0,0,0,0-.01,0-.02,0-.03,0-.04-.01,0,0-.01,0-.02,0-.02,0-.04,0-.05-.01h-.02s-.03-.01-.04-.01c0,0-.01,0-.02,0-.02,0-.04,0-.05-.01,0,0,0,0-.01,0-.01,0-.03,0-.04,0,0,0-.01,0-.02,0-.02,0-.03,0-.05-.01h-.02s-.03-.01-.04-.01c0,0-.01,0-.02,0-.02,0-.03,0-.05-.01,0,0-.01,0-.02,0-.01,0-.03,0-.04,0,0,0-.01,0-.02,0-.02,0-.03,0-.05-.01,0,0-.01,0-.02,0-.01,0-.03,0-.04,0,0,0-.01,0-.02,0-.02,0-.03,0-.05-.01,0,0-.01,0-.02,0-.01,0-.02,0-.04,0,0,0-.01,0-.02,0-.02,0-.03,0-.05-.01,0,0-.02,0-.02,0-.01,0-.02,0-.03,0h-.02s-.03-.01-.05-.02c0,0-.01,0-.02,0-.01,0-.02,0-.03,0,0,0-.01,0-.02,0-.01,0-.03,0-.05,0,0,0-.02,0-.03,0-.01,0-.02,0-.03,0,0,0-.02,0-.03,0-.01,0-.03,0-.05,0,0,0-.02,0-.03,0,0,0-.02,0-.03,0,0,0-.02,0-.03,0-.01,0-.03,0-.05,0,0,0-.02,0-.03,0,0,0-.02,0-.03,0-.01,0-.02,0-.04,0-.01,0-.03,0-.04,0,0,0-.02,0-.03,0,0,0-.02,0-.03,0-.01,0-.03,0-.04,0,0,0-.02,0-.03,0-.01,0-.02,0-.03,0,0,0-.02,0-.03,0-.02,0-.03,0-.05,0,0,0-.02,0-.03,0-.01,0-.02,0-.03,0,0,0-.02,0-.02,0-.02,0-.04,0-.06-.01,0,0-.01,0-.02,0-.01,0-.02,0-.03,0,0,0-.01,0-.02,0-.02,0-.04,0-.06-.01,0,0,0,0-.01,0-.01,0-.02,0-.04,0,0,0,0,0-.01,0-.02,0-.05,0-.07-.01,0,0,0,0,0,0-.01,0-.03,0-.04,0,0,0,0,0-.01,0-.02,0-.05,0-.07-.01,0,0,0,0,0,0-.01,0-.03,0-.04,0,0,0,0,0-.01,0-.02,0-.05,0-.07-.01,0,0,0,0,0,0-.01,0-.03,0-.04,0,0,0,0,0,0,0-.03,0-.05,0-.08-.01,0,0,0,0,0,0-.01,0-.03,0-.04,0,0,0,0,0,0,0-.03,0-.05-.01-.08-.02,0,0,0,0,0,0-.01,0-.03,0-.04,0,0,0,0,0,0,0-.03,0-.05-.01-.08-.02,0,0,0,0,0,0-.01,0-.03,0-.04,0h0s-.06-.01-.08-.02h0s-.08-.02-.13-.02c0,0,0,0,0,0h-.02c-.97-.18-1.94-.35-2.93-.5h0ZM575.94,514.46c-.99,0-1.99.01-3,.04h0c-2.14.06-4.32.18-6.55.37,0,0-.01,0-.02,0,0,0-.02,0-.02,0,0,0-.02,0-.02,0,0,0-.01,0-.02,0,0,0-.02,0-.03,0,0,0-.01,0-.02,0,0,0-.02,0-.03,0,0,0,0,0-.01,0,0,0-.02,0-.03,0,0,0,0,0-.01,0-.01,0-.02,0-.04,0,0,0,0,0,0,0-.01,0-.03,0-.04,0,0,0,0,0,0,0-.01,0-.03,0-.04,0,0,0,0,0,0,0-.02,0-.03,0-.04,0,0,0,0,0,0,0-1.32.12-2.66.26-4.02.42l.57,5.94,2.99-.29c3.56-.34,7.06-.52,10.4-.52h0c.28,0,.57,0,.85,0l3,.03.05-5.96c-1.28-.05-2.58-.07-3.9-.07h0Z"/>
    </g>
    <g id="svg_6" data-name="svg 6">
      <path class="cls-5" d="M493.56,526.79l-58.43,25.7c-5.11,1.23-8.59,5.97-8.24,11.22,2.44,30.07,15.12,72.49,45.25,92.56,47.07,31.37,47.33,37.93,59.99,0,15.36-46.05-3.64-89.22-26.66-124.78-2.57-3.94-7.35-5.83-11.92-4.7Z"/>
      <path class="cls-3" d="M496.21,532.46c1.72,0,3.3.86,4.23,2.28,18.67,28.84,41.68,72.61,26,119.62-3.09,9.26-7.32,21.95-10.36,21.95-3.9,0-13.42-6.52-25.47-14.78-4.42-3.03-9.44-6.46-15.14-10.26-12.73-8.48-23.1-21.91-30.82-39.91-6.25-14.56-10.43-31.64-11.77-48.1-.14-2.32,1.4-4.4,3.66-4.95l.52-.13.49-.21,57.86-25.45c.27-.04.54-.06.8-.06M496.21,526.46c-.88,0-1.77.11-2.65.32l-58.43,25.7c-5.11,1.23-8.59,5.97-8.24,11.22,2.44,30.07,15.12,72.49,45.25,92.56,24.64,16.42,36.46,26.05,43.93,26.05,6.81,0,10.02-7.97,16.06-26.05,15.36-46.05-3.64-89.22-26.66-124.78-2.07-3.18-5.59-5.02-9.26-5.02h0Z"/>
    </g>
    <g id="eye">
      <circle id="svg_2" data-name="svg 2" class="cls-8" cx="329.26" cy="459.92" r="39.99"/>
      <circle id="svg_7" data-name="svg 7" class="cls-12" cx="329.26" cy="459.92" r="34.9"/>
      <circle id="svg_7-2" data-name="svg 7" class="cls-1" cx="329.3" cy="459.98" r="39.83"/>
      <circle id="svg_7-3" data-name="svg 7" class="cls-7" cx="329.19" cy="460.04" r="19.11"/>
    </g>
  </g>
</svg>